<svg width="34" height="34" viewBox="0 0 34 34" fill="none" xmlns="http://www.w3.org/2000/svg">
<g clip-path="url(#clip0_41_770)">
<path d="M16.668 3.37558C21.0766 3.37558 21.5986 3.39492 23.3324 3.47226C24.9438 3.54316 25.8139 3.81387 26.394 4.03945C27.1609 4.33594 27.7152 4.69687 28.2889 5.27051C28.869 5.85058 29.2234 6.39844 29.5199 7.16543C29.7455 7.74551 30.0162 8.62207 30.0871 10.2269C30.1645 11.9672 30.1838 12.4893 30.1838 16.8914C30.1838 21.3 30.1645 21.8221 30.0871 23.5559C30.0162 25.1672 29.7455 26.0373 29.5199 26.6174C29.2234 27.3844 28.8625 27.9387 28.2889 28.5123C27.7088 29.0924 27.1609 29.4469 26.394 29.7434C25.8139 29.9689 24.9373 30.2396 23.3324 30.3105C21.5922 30.3879 21.0701 30.4072 16.668 30.4072C12.2594 30.4072 11.7373 30.3879 10.0035 30.3105C8.39219 30.2396 7.52207 29.9689 6.94199 29.7434C6.175 29.4469 5.6207 29.0859 5.04707 28.5123C4.46699 27.9322 4.1125 27.3844 3.81602 26.6174C3.59043 26.0373 3.31973 25.1607 3.24883 23.5559C3.17149 21.8156 3.15215 21.2935 3.15215 16.8914C3.15215 12.4828 3.17149 11.9607 3.24883 10.2269C3.31973 8.61562 3.59043 7.74551 3.81602 7.16543C4.1125 6.39844 4.47344 5.84414 5.04707 5.27051C5.62715 4.69043 6.175 4.33594 6.94199 4.03945C7.52207 3.81387 8.39864 3.54316 10.0035 3.47226C11.7373 3.39492 12.2594 3.37558 16.668 3.37558ZM16.668 0.404297C12.1885 0.404297 11.6277 0.423633 9.86817 0.500977C8.11504 0.57832 6.90977 0.861914 5.86563 1.26797C4.77637 1.69336 3.85469 2.2541 2.93945 3.17578C2.01777 4.09101 1.45703 5.01269 1.03164 6.09551C0.625586 7.14609 0.341992 8.34492 0.264648 10.098C0.187305 11.8641 0.167969 12.4248 0.167969 16.9043C0.167969 21.3838 0.187305 21.9445 0.264648 23.7041C0.341992 25.4572 0.625586 26.6625 1.03164 27.7066C1.45703 28.7959 2.01777 29.7176 2.93945 30.6328C3.85469 31.548 4.77637 32.1152 5.85918 32.5342C6.90977 32.9402 8.1086 33.2238 9.86172 33.3012C11.6213 33.3785 12.182 33.3978 16.6615 33.3978C21.141 33.3978 21.7018 33.3785 23.4613 33.3012C25.2145 33.2238 26.4197 32.9402 27.4639 32.5342C28.5467 32.1152 29.4684 31.548 30.3836 30.6328C31.2988 29.7176 31.866 28.7959 32.285 27.7131C32.691 26.6625 32.9746 25.4637 33.052 23.7105C33.1293 21.951 33.1486 21.3902 33.1486 16.9107C33.1486 12.4312 33.1293 11.8705 33.052 10.1109C32.9746 8.35781 32.691 7.15254 32.285 6.1084C31.8789 5.01269 31.3182 4.09101 30.3965 3.17578C29.4813 2.26055 28.5596 1.69336 27.4768 1.27441C26.4262 0.868359 25.2274 0.584766 23.4742 0.507422C21.7082 0.423633 21.1475 0.404297 16.668 0.404297Z" fill="white"/>
<path d="M16.667 8.42871C11.9877 8.42871 8.19141 12.225 8.19141 16.9043C8.19141 21.5836 11.9877 25.3799 16.667 25.3799C21.3463 25.3799 25.1426 21.5836 25.1426 16.9043C25.1426 12.225 21.3463 8.42871 16.667 8.42871ZM16.667 22.4021C13.6313 22.4021 11.1691 19.94 11.1691 16.9043C11.1691 13.8686 13.6313 11.4064 16.667 11.4064C19.7027 11.4064 22.1648 13.8686 22.1648 16.9043C22.1648 19.94 19.7027 22.4021 16.667 22.4021Z" fill="white"/>
<path d="M27.4574 8.09346C27.4574 9.18916 26.568 10.0722 25.4787 10.0722C24.383 10.0722 23.5 9.18272 23.5 8.09346C23.5 6.99775 24.3895 6.11475 25.4787 6.11475C26.568 6.11475 27.4574 7.0042 27.4574 8.09346Z" fill="white"/>
</g>
<defs>
<clipPath id="clip0_41_770">
<rect width="33" height="33" fill="white" transform="translate(0.167969 0.404297)"/>
</clipPath>
</defs>
</svg>
